<svg xmlns="http://www.w3.org/2000/svg" width="27" height="21.32" viewBox="0 0 27 21.32">
  <defs>
    <style>
      .cls-1 {
        fill: #e7e9ed;
        fill-rule: evenodd;
      }
    </style>
  </defs>
  <path id="Forma_1_копия_21" data-name="Forma 1 копия 21" class="cls-1" d="M1497.09,5548.15a2.291,2.291,0,0,0,1.58-.6l-7.65-7.68c-0.18.13-.36,0.26-0.53,0.38-0.57.42-1.04,0.76-1.39,0.99a8.914,8.914,0,0,1-1.43.73,4.431,4.431,0,0,1-1.66.37h-0.03a4.425,4.425,0,0,1-1.65-.37,8.5,8.5,0,0,1-1.43-.73c-0.35-.23-0.82-0.57-1.39-0.99-0.16-.12-0.34-0.24-0.53-0.38l-7.65,7.68a2.291,2.291,0,0,0,1.58.6h22.18Zm-23.07-13.12a8.011,8.011,0,0,1-1.52-1.31v11.68l6.74-6.77Q1477.215,5537.22,1474.02,5535.03Zm23.97,0q-3.075,2.1-5.23,3.61l6.74,6.76v-11.68A8.367,8.367,0,0,1,1497.99,5535.03Zm-0.9-8.18h-22.18a2.152,2.152,0,0,0-1.79.79,3.084,3.084,0,0,0-.62,1.96,3.559,3.559,0,0,0,.83,2.07,7.408,7.408,0,0,0,1.76,1.74q0.51,0.375,3.09,2.16c0.93,0.64,1.73,1.21,2.43,1.69,0.59,0.42,1.1.77,1.52,1.07,0.05,0.03.12,0.09,0.22,0.16s0.25,0.18.42,0.3c0.32,0.24.6,0.43,0.81,0.58s0.48,0.31.78,0.49a4.787,4.787,0,0,0,.87.41,2.368,2.368,0,0,0,.75.13h0.03a2.38,2.38,0,0,0,.76-0.13,4.429,4.429,0,0,0,.86-0.41c0.31-.18.57-0.35,0.79-0.49s0.49-.34.81-0.58q0.255-.18.42-0.3c0.1-.07.17-0.13,0.22-0.16,0.33-.23.84-0.58,1.53-1.06q1.875-1.305,5.52-3.86a6.926,6.926,0,0,0,1.84-1.86,3.993,3.993,0,0,0,.74-2.28A2.442,2.442,0,0,0,1497.09,5526.85Z" transform="translate(-1472.5 -5526.84)"/>
</svg>
