<svg xmlns="http://www.w3.org/2000/svg" width="17.09" height="29.94" viewBox="0 0 17.09 29.94">
  <defs>
    <style>
      .cls-1 {
        fill: #d8ae8e;
        fill-rule: evenodd;
      }
    </style>
  </defs>
  <path class="cls-1" d="M1244.89,7982.54h2.97a1.108,1.108,0,0,0,1.15-1.06v-4.38a1.1,1.1,0,0,0-1.15-1.06h-4.08a0.981,0.981,0,0,0-.2-0.01,9.03,9.03,0,0,0-5.57,1.93,5.279,5.279,0,0,0-1.99,4.88v2.86h-2.96a1.108,1.108,0,0,0-1.15,1.06v4.71a1.108,1.108,0,0,0,1.15,1.06h2.79v12.38a1.108,1.108,0,0,0,1.15,1.06h5.81a1.117,1.117,0,0,0,1.16-1.06v-12.32h3.29a1.124,1.124,0,0,0,1.15-.93l0.6-4.78a1.01,1.01,0,0,0-.29-0.83,1.218,1.218,0,0,0-.86-0.35h-3.89v-2.4C1243.97,7982.81,1244.12,7982.54,1244.89,7982.54Zm-1.57,4.35h4.38l-0.57,4.51h-3.81a0.627,0.627,0,0,0-.65.6v12.77h-5.53v-12.83a0.627,0.627,0,0,0-.65-0.6h-3.28v-4.45h3.46a0.623,0.623,0,0,0,.64-0.59v-3.61a4.094,4.094,0,0,1,1.58-3.85,7.58,7.58,0,0,1,4.69-1.61h4.14v4.12h-2.83a1.927,1.927,0,0,0-2.22,1.95v3A0.625,0.625,0,0,0,1243.32,7986.89Zm-4.87,9.24a0.619,0.619,0,0,0-.65.59v0.3a0.652,0.652,0,0,0,1.3,0v-0.3A0.619,0.619,0,0,0,1238.45,7996.13Zm0,2.2a0.627,0.627,0,0,0-.65.6v4.53a0.652,0.652,0,0,0,1.3,0v-4.53A0.627,0.627,0,0,0,1238.45,7998.33Z" transform="translate(-1231.91 -7976.03)"/>
</svg>
