<svg xmlns="http://www.w3.org/2000/svg" xmlns:xlink="http://www.w3.org/1999/xlink" width="54" height="49" viewBox="0 0 54 49">
  <defs>
    <style>
      .cls-1 {
        fill: #fff0e2;
      }

      .cls-1, .cls-2, .cls-3 {
        fill-rule: evenodd;
      }

      .cls-2 {
        fill: #dec8b2;
      }

      .cls-3 {
        fill: url(#linear-gradient);
      }
    </style>
    <linearGradient id="linear-gradient" x1="27.984" y1="32.813" x2="27.984" y2="13.188" gradientUnits="userSpaceOnUse">
      <stop offset="0" stop-color="#e4a57a"/>
      <stop offset="1" stop-color="#f7dfbc"/>
    </linearGradient>
  </defs>
  <path id="Фигура_1_копия_2" data-name="Фигура 1 копия 2" class="cls-1" d="M25.987,10.382C19.359-5.152.52-1.528,0.4,16.5c-0.069,9.9,8.971,13.6,14.989,17.563,5.836,3.839,9.99,9.091,10.64,11.326C26.584,43.2,31.21,37.8,36.613,33.957c5.907-4.2,15.058-7.66,14.99-17.563C51.477-1.68,32.311-4.533,25.987,10.382Z"/>
  <path id="Фигура_1_копия_3" data-name="Фигура 1 копия 3" class="cls-2" d="M27.987,13.382C21.36-2.152,3.52,1.473,3.4,19.5c-0.068,9.9,7.972,13.6,13.99,17.562,5.836,3.84,9.99,9.092,10.641,11.327C28.584,46.2,33.21,40.8,38.612,36.957,44.52,32.755,52.671,29.3,52.6,19.395,52.477,1.319,34.311-1.532,27.987,13.382Z"/>
  <path id="Фигура_1" data-name="Фигура 1" class="cls-1" d="M27.987,10.382C21.36-5.152,2.52-1.528,2.4,16.5c-0.069,9.9,8.971,13.6,14.989,17.563,5.836,3.839,9.99,9.091,10.641,11.326C28.584,43.2,33.21,37.8,38.612,33.957c5.907-4.2,15.058-7.66,14.99-17.563C53.477-1.68,34.311-4.533,27.987,10.382Z"/>
  <path id="Фигура_1_копия" data-name="Фигура 1 копия" class="cls-3" d="M27.993,17.468c-2.907-6.816-11.173-5.226-11.228,2.685-0.029,4.345,3.936,5.969,6.577,7.706,2.561,1.684,4.383,3.989,4.668,4.97,0.245-.961,2.275-3.331,4.645-5.016,2.591-1.844,6.607-3.361,6.577-7.706C39.177,12.175,30.768,10.923,27.993,17.468Z"/>
</svg>
