<?xml version="1.0" encoding="UTF-8"?>
<svg xmlns="http://www.w3.org/2000/svg" xmlns:xlink="http://www.w3.org/1999/xlink" width="36px" height="41px" viewBox="0 0 36 41" version="1.1">
<g id="surface1">
<path style=" stroke:none;fill-rule:nonzero;fill:rgb(0%,0%,0%);fill-opacity:1;" d="M 18.007812 11.289062 C 12.898438 11.289062 8.773438 15.398438 8.773438 20.492188 C 8.773438 25.585938 12.898438 29.691406 18.007812 29.691406 C 23.117188 29.691406 27.242188 25.585938 27.242188 20.492188 C 27.242188 15.398438 23.117188 11.289062 18.007812 11.289062 Z M 18.007812 26.472656 C 14.707031 26.472656 12.003906 23.792969 12.003906 20.492188 C 12.003906 17.191406 14.699219 14.511719 18.007812 14.511719 C 21.320312 14.511719 24.011719 17.191406 24.011719 20.492188 C 24.011719 23.792969 21.3125 26.472656 18.007812 26.472656 Z M 29.773438 10.914062 C 29.773438 12.109375 28.808594 13.0625 27.617188 13.0625 C 26.421875 13.0625 25.464844 12.101562 25.464844 10.914062 C 25.464844 9.730469 26.429688 8.769531 27.617188 8.769531 C 28.808594 8.769531 29.773438 9.730469 29.773438 10.914062 Z M 35.886719 13.09375 C 35.75 10.21875 35.09375 7.671875 32.980469 5.574219 C 30.875 3.476562 28.316406 2.820312 25.433594 2.675781 C 22.460938 2.507812 13.546875 2.507812 10.574219 2.675781 C 7.699219 2.8125 5.144531 3.46875 3.03125 5.566406 C 0.917969 7.664062 0.265625 10.210938 0.121094 13.085938 C -0.046875 16.046875 -0.046875 24.929688 0.121094 27.890625 C 0.257812 30.765625 0.917969 33.3125 3.03125 35.410156 C 5.144531 37.507812 7.691406 38.164062 10.574219 38.308594 C 13.546875 38.476562 22.460938 38.476562 25.433594 38.308594 C 28.316406 38.171875 30.875 37.515625 32.980469 35.410156 C 35.082031 33.3125 35.742188 30.765625 35.886719 27.890625 C 36.054688 24.929688 36.054688 16.054688 35.886719 13.09375 Z M 32.046875 31.070312 C 31.417969 32.640625 30.207031 33.847656 28.625 34.480469 C 26.253906 35.417969 20.628906 35.203125 18.007812 35.203125 C 15.386719 35.203125 9.753906 35.410156 7.394531 34.480469 C 5.816406 33.855469 4.605469 32.648438 3.96875 31.070312 C 3.03125 28.707031 3.246094 23.101562 3.246094 20.492188 C 3.246094 17.882812 3.039062 12.269531 3.96875 9.914062 C 4.597656 8.34375 5.808594 7.136719 7.394531 6.503906 C 9.761719 5.566406 15.386719 5.78125 18.007812 5.78125 C 20.628906 5.78125 26.261719 5.574219 28.625 6.503906 C 30.199219 7.128906 31.410156 8.335938 32.046875 9.914062 C 32.988281 12.277344 32.769531 17.882812 32.769531 20.492188 C 32.769531 23.101562 32.988281 28.714844 32.046875 31.070312 Z M 32.046875 31.070312 "/>
</g>
</svg>
