<svg xmlns="http://www.w3.org/2000/svg" width="44" height="44" viewBox="0 0 44 44">
  <defs>
    <style>
      .cls-1 {
        fill: #f8f8f8;
        opacity: 0.7;
      }

      .cls-2 {
        fill: #e4e1e0;
        fill-rule: evenodd;
      }
    </style>
  </defs>
  <circle id="Эллипс_5" data-name="Эллипс 5" class="cls-1" cx="22" cy="22" r="22"/>
  <path class="cls-2" d="M27.154,25.7a1.388,1.388,0,0,0-2.1,0c-0.49.487-.981,0.973-1.462,1.467a0.288,0.288,0,0,1-.4.074c-0.317-.173-0.655-0.313-0.96-0.5A15.19,15.19,0,0,1,18.564,23.4a8.667,8.667,0,0,1-1.314-2.1,0.3,0.3,0,0,1,.074-0.387c0.49-.474.969-0.96,1.45-1.446a1.392,1.392,0,0,0,0-2.146c-0.383-.387-0.766-0.766-1.15-1.153s-0.787-.8-1.186-1.187a1.4,1.4,0,0,0-2.1,0c-0.494.486-.968,0.984-1.471,1.462a2.385,2.385,0,0,0-.75,1.611,6.816,6.816,0,0,0,.528,2.937,17.852,17.852,0,0,0,3.168,5.276A19.615,19.615,0,0,0,22.3,31.343a9.388,9.388,0,0,0,3.6,1.046,2.635,2.635,0,0,0,2.262-.86c0.42-.47.894-0.9,1.339-1.347a1.4,1.4,0,0,0,.009-2.135Q28.337,26.868,27.154,25.7Zm-0.787-3.282,1.52-.26a6.82,6.82,0,0,0-5.772-5.6L21.9,18.083A5.271,5.271,0,0,1,26.367,22.413ZM28.744,15.8a11.22,11.22,0,0,0-6.427-3.2L22.1,14.129a9.78,9.78,0,0,1,8.277,8.02l1.521-.26A11.3,11.3,0,0,0,28.744,15.8Z"/>
</svg>
