<svg id="Группа_15" data-name="Группа 15" xmlns="http://www.w3.org/2000/svg" width="40" height="40" viewBox="0 0 40 40">
  <defs>
    <style>
      .cls-1 {
        fill: #eee3d7;
      }

      .cls-2 {
        fill: #fff;
        fill-rule: evenodd;
      }
    </style>
  </defs>
  <circle id="Эллипс_1" data-name="Эллипс 1" class="cls-1" cx="20" cy="20" r="20"/>
  <path class="cls-2" d="M1275.73,995.051a1.553,1.553,0,0,0-2.34,0c-0.54.541-1.08,1.081-1.62,1.63a0.324,0.324,0,0,1-.45.082c-0.35-.192-0.73-0.348-1.07-0.559a16.789,16.789,0,0,1-4.07-3.707,9.626,9.626,0,0,1-1.46-2.338,0.34,0.34,0,0,1,.08-0.43c0.55-.527,1.08-1.067,1.61-1.607a1.545,1.545,0,0,0,0-2.385l-1.28-1.281c-0.44-.44-0.87-0.884-1.32-1.319a1.551,1.551,0,0,0-2.33.005c-0.55.54-1.07,1.094-1.63,1.625a2.615,2.615,0,0,0-.83,1.789,7.588,7.588,0,0,0,.58,3.264,19.869,19.869,0,0,0,3.52,5.863,21.821,21.821,0,0,0,7.22,5.647,10.5,10.5,0,0,0,3.99,1.16,2.951,2.951,0,0,0,2.52-.96c0.46-.52.99-1,1.48-1.49a1.556,1.556,0,0,0,.01-2.376Q1277.035,996.355,1275.73,995.051Zm-0.88-3.647,1.69-.289a7.6,7.6,0,0,0-2.11-4.074,7.51,7.51,0,0,0-4.3-2.146l-0.24,1.7A5.857,5.857,0,0,1,1274.85,991.4Zm2.64-7.342a12.463,12.463,0,0,0-7.14-3.561l-0.24,1.7a10.879,10.879,0,0,1,9.2,8.912l1.69-.289A12.583,12.583,0,0,0,1277.49,984.062Z" transform="translate(-1250 -971)"/>
</svg>
