<svg xmlns="http://www.w3.org/2000/svg" width="26.93" height="23.47" viewBox="0 0 26.93 23.47">
  <defs>
    <style>
      .cls-1 {
        fill: #e7e9ed;
        fill-rule: evenodd;
      }
    </style>
  </defs>
  <path id="Shape_1_копия_3" data-name="Shape 1 копия 3" class="cls-1" d="M1393.85,5539.32l6.22,2.31,2.4,7.73a0.727,0.727,0,0,0,1.16.35l3.47-2.82a1.036,1.036,0,0,1,1.26-.04l6.24,4.54a0.738,0.738,0,0,0,1.15-.45l4.58-21.99a0.732,0.732,0,0,0-.98-0.83l-25.51,9.83A0.733,0.733,0,0,0,1393.85,5539.32Zm8.23,1.08,12.15-7.48a0.212,0.212,0,0,1,.25.34l-10.02,9.31a2.049,2.049,0,0,0-.64,1.24l-0.35,2.53a0.311,0.311,0,0,1-.61.04l-1.31-4.61A1.226,1.226,0,0,1,1402.08,5540.4Z" transform="translate(-1393.38 -5528.06)"/>
</svg>
