<?xml version="1.0" encoding="UTF-8"?>
<svg xmlns="http://www.w3.org/2000/svg" xmlns:xlink="http://www.w3.org/1999/xlink" width="28px" height="28px" viewBox="0 0 28 28" version="1.1">
<g id="surface1">
<path style=" stroke:none;fill-rule:nonzero;fill:rgb(100%,100%,100%);fill-opacity:1;" d="M 4.199219 0 L 23.800781 0 C 26.121094 0 28 1.878906 28 4.199219 L 28 23.800781 C 28 26.121094 26.121094 28 23.800781 28 L 4.199219 28 C 1.878906 28 0 26.121094 0 23.800781 L 0 4.199219 C 0 1.878906 1.878906 0 4.199219 0 Z M 4.199219 0 "/>
<path style="fill:none;stroke-width:10;stroke-linecap:round;stroke-linejoin:miter;stroke:rgb(40%,36.078431%,65.490196%);stroke-opacity:1;stroke-miterlimit:4;" d="M 269 186 C 277.285714 185.714286 285.357143 188.928571 291.214286 194.785714 C 297.071429 200.642857 300.285714 208.714286 300 217 M 262 159 C 279.5 159 296.285714 166.142857 308.357143 178.785714 C 320.428571 191.428571 326.785714 208.5 326 226 M 253 133 C 280.357143 132.357143 306.642857 143.285714 325.5 163.071429 C 344.357143 182.928571 354 209.714286 352 237 " transform="matrix(0.0546875,0,0,0.0546875,0,0)"/>
<path style=" stroke:none;fill-rule:nonzero;fill:rgb(40%,36.078431%,65.490196%);fill-opacity:1;" d="M 15.75 14.984375 C 16.113281 14.511719 16.550781 14.4375 17.0625 14.765625 L 19.03125 16.242188 C 19.324219 16.605469 19.195312 17.117188 18.648438 17.773438 C 18.101562 18.429688 17.589844 18.703125 17.117188 18.59375 C 15.183594 18.15625 13.324219 17.0625 11.539062 15.3125 C 9.753906 13.5625 8.640625 11.667969 8.203125 9.625 C 8.203125 8.894531 8.660156 8.277344 9.570312 7.765625 C 10.042969 7.4375 10.445312 7.527344 10.773438 8.039062 L 12.140625 9.953125 C 12.359375 10.390625 12.230469 10.792969 11.757812 11.15625 C 9.625 11.976562 14.546875 17.28125 15.75 14.984375 Z M 5.195312 12.6875 C 5.195312 16.953125 5.960938 17.882812 7.164062 19.140625 C 7.546875 19.523438 8.914062 20.179688 9.242188 20.179688 L 9.242188 23.953125 C 9.242188 24.171875 9.460938 24.335938 9.679688 24.117188 L 12.578125 20.671875 L 14 20.726562 C 21.875 20.726562 22.804688 17.664062 22.804688 12.6875 C 22.804688 7.710938 21.875 4.648438 14 4.648438 C 6.125 4.648438 5.195312 7.710938 5.195312 12.6875 Z M 3.554688 12.6875 C 3.554688 5.796875 6.5625 3.007812 14 3.007812 C 21.4375 3.007812 24.445312 5.796875 24.445312 12.6875 C 24.445312 19.578125 21.4375 22.367188 14 22.367188 C 13.453125 22.367188 13.015625 22.367188 12.25 22.257812 L 10.171875 24.609375 C 9.789062 25.046875 8.640625 25.210938 8.640625 23.898438 L 8.640625 21.601562 C 8.3125 21.601562 7.546875 21.273438 6.507812 20.617188 C 5.46875 19.90625 3.554688 18.210938 3.554688 12.6875 Z M 3.554688 12.6875 "/>
</g>
</svg>
