<svg xmlns="http://www.w3.org/2000/svg" width="36.34" height="21.44" viewBox="0 0 36.34 21.44">
  <defs>
    <style>
      .cls-1 {
        fill: #d8ae8e;
        fill-rule: evenodd;
      }
    </style>
  </defs>
  <path id="Shape_1_копия_2" data-name="Shape 1 копия 2" class="cls-1" d="M1098.73,7996.71a31.9,31.9,0,0,0-2.55-2.64c-0.3-.29-0.61-0.59-0.92-0.88h0a1.858,1.858,0,0,1-.62-0.9,1.754,1.754,0,0,1,.44-0.97c0.48-.68.99-1.36,1.49-2.02,0.44-.59.89-1.19,1.33-1.8l0.1-.14a14.03,14.03,0,0,0,2.2-3.92,1.669,1.669,0,0,0-1.47-2.43,4.354,4.354,0,0,0-.61-0.04h-5.52a1.934,1.934,0,0,0-1.98,1.36c-0.29.73-.63,1.58-1.03,2.39a19.693,19.693,0,0,1-3.11,4.84l-0.07.07a1.756,1.756,0,0,1-.33.3,1.514,1.514,0,0,1-.31-0.93v-0.02l-0.01-6.45v-0.09a2.1,2.1,0,0,0-1.81-2.13,0.675,0.675,0,0,0-.14-0.02h-5.75a2.538,2.538,0,0,0-2.11,1.04,1.122,1.122,0,0,0-.31,1.1,1.1,1.1,0,0,0,.9.65,1.205,1.205,0,0,1,1.05,1.16,18.656,18.656,0,0,1,.08,4.47,3.827,3.827,0,0,1-.24,1.11,0.764,0.764,0,0,1-.08.16,0.957,0.957,0,0,1-.16-0.09,4.838,4.838,0,0,1-1.09-1.24,30.454,30.454,0,0,1-3.3-6.16,2.161,2.161,0,0,0-2.04-1.5c-1.77-.03-3.41-0.03-5.01,0a1.748,1.748,0,0,0-1.57.71,1.82,1.82,0,0,0,.04,1.74,62.107,62.107,0,0,0,6.52,11.74,16.753,16.753,0,0,0,5.12,4.83,13.207,13.207,0,0,0,6.78,1.7q0.435,0,.9-0.03c1.59-.07,2.24-0.71,2.31-2.28a4.8,4.8,0,0,1,.44-2.07,0.575,0.575,0,0,1,.27-0.3,0.63,0.63,0,0,1,.4.14,4.373,4.373,0,0,1,.77.7c0.22,0.24.44,0.49,0.65,0.73,0.45,0.51.92,1.03,1.4,1.54a4.653,4.653,0,0,0,3.79,1.54l5.06,0.01h0.05a1.7,1.7,0,0,0,1.38-.9,2.3,2.3,0,0,0-.01-2.16A10.4,10.4,0,0,0,1098.73,7996.71Zm0.07,3.36a0.239,0.239,0,0,1-.2.15h-5.12a3.164,3.164,0,0,1-2.66-1.11c-0.47-.48-0.92-0.99-1.36-1.49-0.21-.24-0.43-0.49-0.66-0.73a4.887,4.887,0,0,0-1.05-.94,1.78,1.78,0,0,0-2.73.67,6.2,6.2,0,0,0-.62,2.72,1.161,1.161,0,0,1-.16.72,1.245,1.245,0,0,1-.77.16,12.248,12.248,0,0,1-6.89-1.48,15.334,15.334,0,0,1-4.67-4.43,60.116,60.116,0,0,1-6.37-11.47,0.942,0.942,0,0,1-.11-0.34,1.291,1.291,0,0,1,.35-0.05c1.58-.03,3.2-0.03,4.96,0a0.744,0.744,0,0,1,.72.59,32.129,32.129,0,0,0,3.45,6.46,6.336,6.336,0,0,0,1.46,1.6,1.6,1.6,0,0,0,1.39.3,1.642,1.642,0,0,0,1.01-1.01,5.077,5.077,0,0,0,.34-1.55,20.478,20.478,0,0,0-.08-4.81,2.656,2.656,0,0,0-1.52-2.16,1.124,1.124,0,0,1,.55-0.11h5.67a0.632,0.632,0,0,1,.41.18,1.806,1.806,0,0,1,.17.65l0.01,6.38a2.559,2.559,0,0,0,1.28,2.35,0.037,0.037,0,0,1,.03.01,1.715,1.715,0,0,0,1.84-.7l0.06-.07a20.376,20.376,0,0,0,3.36-5.2c0.42-.85.77-1.73,1.07-2.49a0.529,0.529,0,0,1,.61-0.44h0.02l5.53,0.01c0.13,0,.27,0,0.37.01a1.4,1.4,0,0,1,.41.13,1.37,1.37,0,0,1-.08.42,12.7,12.7,0,0,1-2,3.5l-0.09.14c-0.43.6-.88,1.2-1.32,1.78-0.5.67-1.02,1.36-1.51,2.05-1.05,1.49-.96,2.47.35,3.76,0.31,0.31.63,0.61,0.94,0.91a30.128,30.128,0,0,1,2.43,2.51,9.4,9.4,0,0,1,1.14,1.65A0.814,0.814,0,0,1,1098.8,8000.07Zm-29.54-15.26c-0.11-.22-0.21-0.43-0.32-0.64a0.723,0.723,0,0,0-.97-0.34,0.742,0.742,0,0,0-.33.98l0.33,0.66a0.717,0.717,0,0,0,.64.4,0.8,0.8,0,0,0,.33-0.08A0.729,0.729,0,0,0,1069.26,7984.81Zm4.54,7.58a48.53,48.53,0,0,1-3.39-5.39,0.728,0.728,0,1,0-1.27.71,49.049,49.049,0,0,0,3.5,5.55,0.7,0.7,0,0,0,.58.3,0.76,0.76,0,0,0,.43-0.14A0.743,0.743,0,0,0,1073.8,7992.39Z" transform="translate(-1064 -7980.28)"/>
</svg>
