<svg xmlns="http://www.w3.org/2000/svg" width="27" height="27" viewBox="0 0 27 27">
  <defs>
    <style>
      .cls-1 {
        fill: #e9c9ae;
        fill-rule: evenodd;
      }
    </style>
  </defs>
  <path id="Forma_1_копия_21" data-name="Forma 1 копия 21" class="cls-1" d="M1262.5,5539.65a13.285,13.285,0,0,1-19.66,11.52l-7.34,2.33,2.39-7.06a13.054,13.054,0,0,1-1.9-6.79A13.255,13.255,0,0,1,1262.5,5539.65Zm-13.26-11.05a11.105,11.105,0,0,0-11.14,11.05,10.95,10.95,0,0,0,2.12,6.48l-1.39,4.11,4.28-1.36A11.086,11.086,0,1,0,1249.24,5528.6Zm6.7,14.08a1.671,1.671,0,0,0-.63-0.38c-0.32-.16-1.92-0.94-2.22-1.04a0.5,0.5,0,0,0-.73.16c-0.21.32-.84,1.04-1.03,1.26a0.491,0.491,0,0,1-.7.08,8.866,8.866,0,0,1-2.61-1.6,9.617,9.617,0,0,1-1.81-2.23,0.472,0.472,0,0,1,.14-0.66,7.257,7.257,0,0,0,.49-0.56,2.524,2.524,0,0,0,.33-0.54,0.628,0.628,0,0,0-.03-0.57c-0.08-.16-0.73-1.74-1-2.39s-0.54-.54-0.73-0.54-0.41-.02-0.63-0.02a1.189,1.189,0,0,0-.86.4,3.584,3.584,0,0,0-1.14,2.69,6.126,6.126,0,0,0,1.33,3.33,13.17,13.17,0,0,0,5.55,4.87c3.3,1.29,3.3.86,3.89,0.81a3.291,3.291,0,0,0,2.2-1.54A2.687,2.687,0,0,0,1255.94,5542.68Z" transform="translate(-1235.5 -5526.5)"/>
</svg>
