<svg xmlns="http://www.w3.org/2000/svg" width="35.29" height="25.68" viewBox="0 0 35.29 25.68">
  <defs>
    <style>
      .cls-1 {
        fill: #d8ae8e;
        fill-rule: evenodd;
      }
    </style>
  </defs>
  <path class="cls-1" d="M1195.86,7989.22l-7.11-3.75a1.758,1.758,0,0,0-1.76.06,1.826,1.826,0,0,0-.86,1.56v7.52a1.855,1.855,0,0,0,.86,1.57,1.788,1.788,0,0,0,.93.26,1.706,1.706,0,0,0,.83-0.21l7.11-3.77a1.83,1.83,0,0,0,.97-1.62A1.807,1.807,0,0,0,1195.86,7989.22Zm-0.65,1.97h0l-7.11,3.78a0.4,0.4,0,0,1-.38-0.02,0.39,0.39,0,0,1-.19-0.34v-7.52a0.39,0.39,0,0,1,.19-0.34,0.361,0.361,0,0,1,.2-0.06,0.366,0.366,0,0,1,.18.04l7.11,3.76a0.381,0.381,0,0,1,.21.35A0.392,0.392,0,0,1,1195.21,7991.19Zm11.68-10.69h0c-1.37-1.66-3.79-2.34-8.33-2.34H1182.9c-4.66,0-7.11.72-8.48,2.49-1.34,1.73-1.34,4.1-1.34,7.37v5.96c0,2.69.22,5.44,1.84,7.31,1.49,1.74,4.03,2.54,7.98,2.54h15.66c3.94,0,6.15-.59,7.64-2.03,1.52-1.49,2.17-3.82,2.17-7.82v-5.96C1208.37,7984.56,1208.27,7982.17,1206.89,7980.5Zm0.08,13.48c0,3.57-.52,5.6-1.75,6.79-1.19,1.16-3.12,1.64-6.66,1.64H1182.9c-7.2,0-8.42-2.6-8.42-8.43v-5.96c0-2.99,0-5.14,1.04-6.48,1.07-1.38,3.21-1.95,7.38-1.95h15.66c4.08,0,6.18.53,7.25,1.83h0c1.08,1.3,1.16,3.46,1.16,6.6v5.96Zm-10.34,6.24H1196a0.715,0.715,0,0,0,0,1.43h0.63A0.715,0.715,0,0,0,1196.63,8000.22Zm-3.37,0h-11.11a0.715,0.715,0,0,0,0,1.43h11.11A0.715,0.715,0,0,0,1193.26,8000.22Z" transform="translate(-1173.09 -7978.16)"/>
</svg>
